<?xml version="1.0" encoding="UTF-8"?><svg id="_レイヤー_2" xmlns="http://www.w3.org/2000/svg" xmlns:xlink="http://www.w3.org/1999/xlink" viewBox="0 0 300 55"><defs><style>.cls-1{fill:url(#_名称未設定グラデーション_10-3);}.cls-1,.cls-2,.cls-3,.cls-4,.cls-5,.cls-6{stroke-width:0px;}.cls-2{fill:url(#_名称未設定グラデーション_10-2);}.cls-3{fill:none;}.cls-4{fill:url(#_名称未設定グラデーション_10);}.cls-5{fill:url(#_名称未設定グラデーション_12);}.cls-6{fill:#000;}</style><linearGradient id="_名称未設定グラデーション_10" x1="19.58" y1="28.91" x2="50.12" y2="28.91" gradientUnits="userSpaceOnUse"><stop offset="0" stop-color="#8cc63f"/><stop offset="1" stop-color="#009245"/></linearGradient><linearGradient id="_名称未設定グラデーション_12" x1="5.8" y1="35.94" x2="36.34" y2="35.94" gradientUnits="userSpaceOnUse"><stop offset="0" stop-color="#29abe2"/><stop offset="1" stop-color="#0071bc"/></linearGradient><linearGradient id="_名称未設定グラデーション_10-2" x1="0" y1="22.95" x2="56.2" y2="22.95" xlink:href="#_名称未設定グラデーション_10"/><linearGradient id="_名称未設定グラデーション_10-3" x1="2.55" y1="48.98" x2="53.64" y2="48.98" xlink:href="#_名称未設定グラデーション_10"/></defs><g id="_ヘッダー"><rect class="cls-3" width="300" height="55"/><path class="cls-6" d="M75.67,21.63v-3.64h4.68c.35-1.73.57-3.07.68-4h3.88c-.32,1.76-.57,3.09-.76,4h4.92v3.64h-5.48c-2,8.93-3.32,14.44-3.96,16.52h-4c2.05-7.41,3.41-12.92,4.08-16.52h-4.04ZM92.39,17.91c.96-.08,2.01-.12,3.16-.12,1.84,0,3.49.09,4.96.28v3.68c-1.01-.13-2.48-.21-4.4-.24v10.12c1.44.51,2.97,1.19,4.6,2.04v4.48c-1.57-1.12-3.11-2-4.6-2.64v3.8c0,1.09-.07,1.93-.22,2.5-.15.57-.37,1.07-.66,1.5-.96,1.41-2.53,2.12-4.72,2.12-1.23,0-2.36-.17-3.4-.52-1.47-.48-2.6-1.28-3.4-2.4-.8-1.12-1.2-2.52-1.2-4.2,0-2.35.75-4.22,2.26-5.62,1.51-1.4,3.46-2.1,5.86-2.1.56,0,1.16.04,1.8.12l-.04-12.8ZM91.69,41.49c.33-.23.54-.53.62-.92.08-.39.12-.98.12-1.78v-4.36c-.53-.11-1.09-.16-1.68-.16-1.33,0-2.39.34-3.18,1.02-.79.68-1.23,1.65-1.34,2.9-.05,1.25.3,2.17,1.06,2.76.76.59,1.67.88,2.74.88.77,0,1.33-.11,1.66-.34Z"/><path class="cls-6" d="M108.55,21.07l3.48-.24,1.36-.08c.05-1.92.08-3.28.08-4.08l-.04-2.48h3.76c.03.53.04,1.4.04,2.6,0,1.6-.03,2.83-.08,3.68h4.24c1.76,0,3.1.54,4.02,1.62.92,1.08,1.47,2.89,1.66,5.42.21,2.29.32,4.32.32,6.08,0,3.41-.47,6.05-1.4,7.92-.93,1.87-2.55,2.84-4.84,2.92-1.39.05-2.81-.08-4.28-.4v-3.92c1.63.37,2.89.56,3.8.56.69,0,1.26-.22,1.7-.66s.71-1.07.82-1.9c.24-1.6.36-3.55.36-5.84,0-1.28-.05-2.8-.16-4.56-.11-1.28-.4-2.19-.88-2.74-.48-.55-1.19-.82-2.12-.82h-1.64c-.27,0-.88.03-1.84.08-.32,4.19-.83,7.86-1.52,11.02-.69,3.16-1.6,6.25-2.72,9.26h-4.12c1.15-2.53,2.13-5.57,2.96-9.1.83-3.53,1.4-7.15,1.72-10.86-1.73.13-3.29.28-4.68.44v-3.92ZM130.87,15.39c2.08,4.29,3.51,9.04,4.28,14.24h-4.24c-.64-5.23-2.04-9.97-4.2-14.24h4.16Z"/><path class="cls-6" d="M154.79,39.07c0,1.87-.23,3.21-.68,4.04-.43.72-1.09,1.27-1.98,1.64-.89.37-1.97.56-3.22.56-1.47,0-2.8-.25-4-.76-1.33-.51-2.39-1.35-3.18-2.52-.79-1.17-1.19-2.49-1.22-3.96.03-1.65.43-3.09,1.2-4.32.67-1.12,1.63-1.95,2.88-2.48,1.25-.53,2.85-.8,4.8-.8.72,0,1.27.01,1.64.04V13.87h3.76v6.2h9.12v3.68h-9.12v7.48c1.57.51,3.01,1.12,4.32,1.84,1.31.72,2.89,1.72,4.76,3v4.72c-3.41-2.69-6.44-4.56-9.08-5.6v3.88ZM150.63,41.11c.27-.32.4-.91.4-1.76v-5c-.85-.13-1.56-.2-2.12-.2-1.44,0-2.53.31-3.28.94-.75.63-1.12,1.55-1.12,2.78.03,1.2.49,2.15,1.38,2.86.89.71,2.01.99,3.34.86.67,0,1.13-.16,1.4-.48Z"/><path class="cls-6" d="M172.15,13.95h3.76v21.96c0,1.89.28,3.23.84,4,.56.77,1.55,1.21,2.96,1.32,1.57,0,3.28-.4,5.12-1.2,1.33-.56,2.78-1.31,4.34-2.24,1.56-.93,2.97-1.87,4.22-2.8v4.4c-1.31,1.01-2.6,1.91-3.88,2.68-3.09,1.81-6.28,2.79-9.56,2.92-2.61-.05-4.57-.84-5.86-2.36-1.29-1.52-1.94-3.8-1.94-6.84V13.95Z"/><path class="cls-6" d="M224.67,22.07h-10.36v22.64h-3.72v-22.64h-10.24v-4h10.16v-4.56h3.88v4.56h10.28v4ZM205.95,26.91c-.03,3.31-.16,6.1-.4,8.38-.24,2.28-.61,4.95-1.12,8.02h-3.84c.59-3.57,1.01-6.48,1.28-8.72.27-2.24.41-4.8.44-7.68h3.64ZM222.71,26.91c.03,2.88.17,5.44.44,7.68.27,2.24.69,5.15,1.28,8.72h-3.84c-.51-3.07-.88-5.74-1.12-8.02-.24-2.28-.37-5.07-.4-8.38h3.64Z"/><path class="cls-6" d="M230.35,27.07h17.28v3.96h-17.28v-3.96Z"/><path class="cls-6" d="M265.11,14.87c-.85,4-1.68,7.49-2.48,10.48-1.49,5.47-3.04,10.21-4.64,14.24h15.76c-.93-4.69-2.24-9.12-3.92-13.28h4.12c1.09,2.8,2.1,5.78,3.02,8.94.92,3.16,1.57,5.93,1.94,8.3h-25.4v-4.56c1.12-2.85,2.07-5.36,2.84-7.52.88-2.48,1.73-5.2,2.56-8.16.83-2.96,1.51-5.77,2.04-8.44h4.16Z"/><path class="cls-4" d="M34.85,9.7l-15.27,12.03h4v2.22l16.86,13.29h-6.68v10.87c4.71-.04,8.93-.75,12.36-2.04v-24.33h4l-15.27-12.03ZM34.52,25.79h-3.14v-3.14h3.14v3.14ZM34.52,21.98h-3.14v-3.14h3.14v3.14ZM38.33,25.79h-3.14v-3.14h3.14v3.14ZM38.33,21.98h-3.14v-3.14h3.14v3.14Z"/><path class="cls-5" d="M21.07,23.78l-15.27,12.03h4v9.25c.87-.11,1.8-.17,2.79-.17,2.67,0,5.41.46,8.12,1.37,3.24,1.09,7.43,1.74,11.62,1.84v-12.29h4l-15.27-12.03ZM20.74,39.87h-3.14v-3.14h3.14v3.14ZM20.74,36.06h-3.14v-3.14h3.14v3.14ZM24.55,39.87h-3.14v-3.14h3.14v3.14ZM24.55,36.06h-3.14v-3.14h3.14v3.14Z"/><path class="cls-2" d="M28.1,0C12.58,0,0,12.58,0,28.1c0,6.71,2.35,12.87,6.27,17.7.8-.24,1.7-.45,2.69-.61-4.06-4.54-6.52-10.53-6.52-17.09C2.44,13.93,13.93,2.44,28.1,2.44s25.66,11.49,25.66,25.66c0,6.92-2.74,13.19-7.18,17.81,2.38-.95,4.35-2.19,5.82-3.68,2.42-4.15,3.8-8.98,3.8-14.13C56.2,12.58,43.62,0,28.1,0Z"/><path class="cls-1" d="M2.55,48.97s7.06-4.93,17.72-1.36c9.42,3.15,26.26,2.97,33.38-4.65,0,0-3.64,9.77-17.72,11.75-15.71,2.22-21.24-9.4-33.38-5.74Z"/></g></svg>